<svg xmlns="http://www.w3.org/2000/svg" width="29.283" height="29.267" viewBox="1597.983 63.367 29.283 29.267"><path d="M1612.625 63.375h-.049a14.556 14.556 0 0 0-10.308 4.296A14.549 14.549 0 0 0 1598 78c0 3.902 1.519 7.566 4.275 10.329a14.544 14.544 0 0 0 10.308 4.296h.049c8.065 0 14.625-6.56 14.625-14.625 0-8.065-6.567-14.625-14.632-14.625Zm12.67 13.64h-5.456a27.69 27.69 0 0 0-.689-5.357 21.42 21.42 0 0 0 3.495-1.477 12.597 12.597 0 0 1 2.65 6.835Zm-13.654 0h-4.346c.057-1.722.267-3.353.62-4.858 1.222.274 2.467.443 3.726.5v4.359Zm0 1.97v4.352a21.482 21.482 0 0 0-3.727.499 24.989 24.989 0 0 1-.619-4.852h4.346Zm1.968 0h4.31a24.845 24.845 0 0 1-.618 4.844 20.988 20.988 0 0 0-3.692-.492v-4.353Zm0-1.97v-4.359a21.483 21.483 0 0 0 3.692-.492c.351 1.505.562 3.129.619 4.852h-4.31Zm7.693-8.29c-.865.43-1.758.795-2.672 1.09-.5-1.504-1.132-2.805-1.864-3.831a12.724 12.724 0 0 1 4.536 2.742Zm-4.529 1.597a19.788 19.788 0 0 1-3.164.422v-5.161c1.196.647 2.363 2.383 3.164 4.739Zm-5.132-4.767v5.182a19.447 19.447 0 0 1-3.2-.43c.816-2.376 1.997-4.112 3.2-4.752Zm-3.207.45c-.724 1.02-1.35 2.313-1.849 3.804-.9-.296-1.786-.661-2.637-1.083a12.533 12.533 0 0 1 4.486-2.721Zm-5.829 4.183c1.111.59 2.272 1.083 3.46 1.463-.4 1.68-.633 3.48-.69 5.358h-5.413a12.532 12.532 0 0 1 2.643-6.82Zm-2.65 8.796h5.414c.063 1.878.295 3.678.689 5.358a22.277 22.277 0 0 0-3.46 1.463 12.599 12.599 0 0 1-2.643-6.82Zm3.986 8.29c.851-.422 1.737-.787 2.644-1.083.5 1.498 1.125 2.785 1.85 3.811a12.845 12.845 0 0 1-4.494-2.728Zm4.5-1.589a19.549 19.549 0 0 1 3.2-.429v5.19c-1.21-.64-2.384-2.384-3.2-4.76Zm5.168 4.732V85.25c1.07.056 2.13.197 3.164.422-.801 2.363-1.968 4.1-3.164 4.746Zm3.164-.4c.732-1.027 1.365-2.328 1.864-3.833.914.296 1.814.668 2.672 1.097a12.87 12.87 0 0 1-4.536 2.735Zm5.872-4.205a21.42 21.42 0 0 0-3.495-1.477c.394-1.68.626-3.473.69-5.35h5.455a12.542 12.542 0 0 1-2.65 6.827Z" fill-rule="evenodd" data-name="Icon ionic-ios-globe"/></svg>